#!OML:ASF X:\für Bonn\!DataBase\2005_08_11_Bastian_Final\c3d\Bastian.ASF
:FULLY-SPECIFIED
:DEGREES
273
root 2.63751 14.864 -11.5031 553.415 -166.124 -136.018
lowerback 56.0453 -11.3671 24.727
upperback 8.84105 2.61999 7.6908
thorax -9.09001 0.926061 -2.34445
lowerneck -28.7864 -4.55167 1.28711
upperneck -6.10895 -6.58012 -5.48373
head 2.1539 -3.82484 -2.57495
rclavicle 1.27222e-014 -3.18055e-015
rhumerus 52.2853 -24.9484 -51.9657
rradius 33.1109
rwrist -92.1096
rhand -42.806 -33.3996
rfingers 7.12502
rthumb -15.6715 -62.785
lclavicle 1.27222e-014 -3.18055e-015
lhumerus -26.5167 -9.09005 -8.74356
lradius 28.7436
lwrist 92.7534
lhand -38.0642 -12.1903
lfingers 7.12502
lthumb -11.1012 17.496
rfemur -64.4703 -20.3747 9.33231
rtibia 76.4157
rfoot -30.1981 -14.7808
rtoes 53.6252
lfemur -19.5069 32.6337 -20.1271
ltibia 71.3163
lfoot -12.7866 -22.5896
ltoes -46.9255
274
root 2.65907 14.8896 -11.6688 553.603 -167.355 -137.456
lowerback 55.8139 -11.1099 24.8151
upperback 9.01948 2.90054 7.99795
thorax -8.85366 1.05862 -2.17581
lowerneck -28.5912 -4.71586 1.14009
upperneck -6.02603 -6.74212 -5.18773
head 2.16088 -3.87798 -2.46769
rclavicle -6.99722e-014 -1.19271e-013
rhumerus 50.7051 -24.8419 -51.6135
rradius 32.8287
rwrist -90.2037
rhand -40.144 -29.3575
rfingers 7.12502
rthumb -13.1066 -58.9256
lclavicle -6.99722e-014 -1.19271e-013
lhumerus -27.961 -6.97967 -7.88137
lradius 27.6757
lwrist 88.4291
lhand -37.6701 -12.1063
lfingers 7.12502
lthumb -10.7211 17.6001
rfemur -64.4002 -20.4068 10.8672
rtibia 76.0519
rfoot -29.6307 -15.0309
rtoes 53.1332
lfemur -19.9969 32.2569 -22.5563
ltibia 70.6529
lfoot -13.8874 -23.2854
ltoes -48.1385
275
root 2.6743 14.9148 -11.8384 553.759 -168.576 -138.857
lowerback 55.5322 -10.7337 24.7343
upperback 9.24558 3.20073 8.35967
thorax -8.59425 1.20303 -1.91098
lowerneck -28.5114 -4.84203 1.1427
upperneck -5.88281 -6.89704 -5.10893
head 2.19191 -3.94575 -2.45683
rclavicle 4.77083e-014 -6.99722e-014
rhumerus 49.1714 -24.6772 -51.3959
rradius 32.3766
rwrist -87.7642
rhand -37.3598 -25.464
rfingers 7.12502
rthumb -10.4218 -55.1857
lclavicle 4.77083e-014 -6.99722e-014
lhumerus -29.2981 -5.00334 -7.13256
lradius 26.6281
lwrist 83.9221
lhand -37.2949 -11.7902
lfingers 7.12502
lthumb -10.3591 17.9347
rfemur -64.3199 -20.3317 12.3291
rtibia 75.6563
rfoot -29.1534 -15.246
rtoes 52.8373
lfemur -20.3939 31.6793 -24.8072
ltibia 70.0633
lfoot -14.5262 -24.2726
ltoes -48.744
276
root 2.68189 14.9375 -12.0098 553.869 -169.844 -140.221
lowerback 55.1703 -10.3204 24.5849
upperback 9.51134 3.46985 8.7038
thorax -8.29955 1.34317 -1.6401
lowerneck -28.5401 -4.90193 1.42436
upperneck -5.70034 -7.04779 -5.24107
head 2.23489 -4.03035 -2.55967
rclavicle -9.54166e-015 -1.63799e-013
rhumerus 47.6218 -24.5006 -51.3558
rradius 31.8519
rwrist -84.8954
rhand -34.6575 -21.6117
rfingers 7.12502
rthumb -7.81424 -51.4473
lclavicle -9.54166e-015 -1.63799e-013
lhumerus -30.5473 -4.26261 -6.21405
lradius 25.697
lwrist 80.4784
lhand -36.931 -11.6293
lfingers 7.12502
lthumb -10.008 18.1128
rfemur -64.187 -20.182 13.7174
rtibia 75.224
rfoot -28.7627 -15.4627
rtoes 52.6435
lfemur -20.6496 30.8557 -26.8459
ltibia 69.5067
lfoot -14.3377 -25.4092
ltoes -47.8968
277
root 2.67858 14.9613 -12.1811 553.952 -171.157 -141.58
lowerback 54.7558 -9.86938 24.3603
upperback 9.81208 3.72562 9.08642
thorax -7.98082 1.48136 -1.30213
lowerneck -28.7402 -4.91559 1.79331
upperneck -5.4251 -7.15886 -5.52131
head 2.32219 -4.10794 -2.72717
rclavicle 3.81667e-014 -1.59028e-015
rhumerus 46.3989 -24.2551 -51.502
rradius 31.0846
rwrist -81.5082
rhand -32.24 -18.0766
rfingers 7.12502
rthumb -5.48048 -47.9857
lclavicle 3.81667e-014 -1.59028e-015
lhumerus -31.7259 -4.28341 -5.03715
lradius 24.7643
lwrist 77.5705
lhand -36.5739 -11.5771
lfingers 7.12502
lthumb -9.66357 18.1813
rfemur -63.9766 -19.9201 15.0474
rtibia 74.7235
rfoot -28.4386 -15.7554
rtoes 52.4874
lfemur -20.7791 29.9238 -28.5827
ltibia 68.9755
lfoot -13.8861 -26.4402
ltoes -46.2912
278
root 2.6651 14.9884 -12.3518 554.05 -172.513 -142.844
lowerback 54.2821 -9.40709 24.0837
upperback 10.0934 3.95164 9.43365
thorax -7.69017 1.60733 -0.979303
lowerneck -29.0166 -4.87687 2.30348
upperneck -5.12306 -7.24317 -5.91594
head 2.42052 -4.18215 -2.95402
rclavicle 7.95139e-014 -1.46306e-013
rhumerus 45.3323 -24.0368 -51.8683
rradius 30.1824
rwrist -77.5372
rhand -30.2295 -15.022
rfingers 7.12502
rthumb -3.53905 -44.9724
lclavicle 7.95139e-014 -1.46306e-013
lhumerus -32.7381 -4.90129 -3.65115
lradius 23.767
lwrist 75.0264
lhand -36.1918 -11.5713
lfingers 7.12502
lthumb -9.29484 18.2038
rfemur -63.76 -19.6158 16.2598
rtibia 74.1542
rfoot -28.1374 -16.0647
rtoes 52.32
lfemur -20.86 29.1051 -30.1585
ltibia 68.5096
lfoot -13.5871 -27.4661
ltoes -45.1152
